{
    "accessors" : [{
        "bufferView" : 0,
        "componentType" : 5121,
        "count" : 246,
        "max" : [131],
        "min" : [0],
        "type" : "SCALAR"
    },{
        "bufferView" : 1,
        "componentType" : 5126,
        "count" : 132,
        "max" : [1.5017,2.8153,1.5017],
        "min" : [-1.5017,-3.40968,-1.5017],
        "type" : "VEC3"
    },{
        "bufferView" : 2,
        "componentType" : 5126,
        "count" : 132,
        "max" : [0.919553,0.979247,0.854244],
        "min" : [-0.701498,-0.969512,-0.854244],
        "type" : "VEC3"
    },{
        "bufferView" : 3,
        "componentType" : 5126,
        "count" : 132,
        "max" : [0.989682,0.646806,0.914456,1],
        "min" : [-0.844676,-0.646806,-0.989682,-1],
        "type" : "VEC4"
    },{
        "bufferView" : 4,
        "componentType" : 5126,
        "count" : 132,
        "max" : [1.18583,1.36244],
        "min" : [-0.255485,-0.140378],
        "type" : "VEC2"
    },{
        "bufferView" : 5,
        "componentType" : 5121,
        "count" : 222,
        "max" : [39],
        "min" : [0],
        "type" : "SCALAR"
    },{
        "bufferView" : 6,
        "componentType" : 5126,
        "count" : 40,
        "max" : [1,1,0.703586],
        "min" : [-1,-1,-0.180527],
        "type" : "VEC3"
    },{
        "bufferView" : 7,
        "componentType" : 5126,
        "count" : 40,
        "max" : [0.916959,0.871059,0.910794],
        "min" : [-0.92758,-0.799249,-0.702414],
        "type" : "VEC3"
    },{
        "bufferView" : 8,
        "componentType" : 5121,
        "count" : 384,
        "max" : [63],
        "min" : [0],
        "type" : "SCALAR"
    },{
        "bufferView" : 9,
        "componentType" : 5126,
        "count" : 64,
        "max" : [1,0.103968,1],
        "min" : [-1,-0.103968,-1],
        "type" : "VEC3"
    },{
        "bufferView" : 10,
        "componentType" : 5126,
        "count" : 64,
        "max" : [0.746178,0.753746,0.746178],
        "min" : [-0.746178,-0.753746,-0.746178],
        "type" : "VEC3"
    },{
        "bufferView" : 11,
        "componentType" : 5121,
        "count" : 24,
        "max" : [8],
        "min" : [0],
        "type" : "SCALAR"
    },{
        "bufferView" : 12,
        "componentType" : 5126,
        "count" : 9,
        "max" : [1,0,1],
        "min" : [-1,0,-1],
        "type" : "VEC3"
    },{
        "bufferView" : 13,
        "componentType" : 5126,
        "count" : 9,
        "max" : [0,1,0],
        "min" : [0,1,0],
        "type" : "VEC3"
    },{
        "bufferView" : 14,
        "componentType" : 5121,
        "count" : 36,
        "max" : [15],
        "min" : [0],
        "type" : "SCALAR"
    },{
        "bufferView" : 15,
        "componentType" : 5126,
        "count" : 16,
        "max" : [0.949449,0.999815,0.949449],
        "min" : [-0.949449,-0.999815,-0.949449],
        "type" : "VEC3"
    },{
        "bufferView" : 16,
        "componentType" : 5126,
        "count" : 16,
        "max" : [0.0357982,0.999329,0.0357982],
        "min" : [-0.0357982,-0.999329,-0.0357982],
        "type" : "VEC3"
    },{
        "bufferView" : 17,
        "componentType" : 5126,
        "count" : 16,
        "max" : [0.973728,0.980922],
        "min" : [0.0333761,0.044583],
        "type" : "VEC2"
    },{
        "bufferView" : 18,
        "componentType" : 5121,
        "count" : 144,
        "max" : [35],
        "min" : [0],
        "type" : "SCALAR"
    },{
        "bufferView" : 19,
        "componentType" : 5126,
        "count" : 36,
        "max" : [1,0.999815,1],
        "min" : [-1,-0.999815,-1],
        "type" : "VEC3"
    },{
        "bufferView" : 20,
        "componentType" : 5126,
        "count" : 36,
        "max" : [0.790521,0.999329,0.790521],
        "min" : [-0.790521,-0.999329,-0.790521],
        "type" : "VEC3"
    },{
        "bufferView" : 21,
        "componentType" : 5126,
        "count" : 36,
        "max" : [2.47766,0.110227],
        "min" : [-1.21833,-0.442189],
        "type" : "VEC2"
    },{
        "bufferView" : 22,
        "componentType" : 5121,
        "count" : 48,
        "max" : [31],
        "min" : [0],
        "type" : "SCALAR"
    },{
        "bufferView" : 23,
        "componentType" : 5126,
        "count" : 32,
        "max" : [3.34037,0.0772242,4.38917],
        "min" : [-3.34037,-0.528795,-4.38917],
        "type" : "VEC3"
    },{
        "bufferView" : 24,
        "componentType" : 5126,
        "count" : 32,
        "max" : [1,1,1],
        "min" : [-1,0,-1],
        "type" : "VEC3"
    },{
        "bufferView" : 25,
        "componentType" : 5126,
        "count" : 32,
        "max" : [1,0,7.18785e-08,1],
        "min" : [0,0,-1,-1],
        "type" : "VEC4"
    },{
        "bufferView" : 26,
        "componentType" : 5126,
        "count" : 32,
        "max" : [3.08556,3.18335],
        "min" : [-2.09488,-1.99709],
        "type" : "VEC2"
    },{
        "bufferView" : 27,
        "componentType" : 5123,
        "count" : 498,
        "max" : [355],
        "min" : [0],
        "type" : "SCALAR"
    },{
        "bufferView" : 28,
        "componentType" : 5126,
        "count" : 356,
        "max" : [10.4404,13.1519,0.525168],
        "min" : [1.94174,-0.525168,-1.61939],
        "type" : "VEC3"
    },{
        "bufferView" : 29,
        "componentType" : 5126,
        "count" : 356,
        "max" : [1,1,1],
        "min" : [-1,-1,-0.847669],
        "type" : "VEC3"
    },{
        "bufferView" : 30,
        "componentType" : 5126,
        "count" : 356,
        "max" : [0.987555,0.998115,0.999847,1],
        "min" : [-1,-0.662788,-0.997959,1],
        "type" : "VEC4"
    },{
        "bufferView" : 31,
        "componentType" : 5126,
        "count" : 356,
        "max" : [2.30505,1.34966],
        "min" : [-0.469011,-0.382832],
        "type" : "VEC2"
    },{
        "bufferView" : 32,
        "componentType" : 5121,
        "count" : 132,
        "max" : [42],
        "min" : [0],
        "type" : "SCALAR"
    },{
        "bufferView" : 33,
        "componentType" : 5126,
        "count" : 43,
        "max" : [3.20945,4.36232,4.20945],
        "min" : [2.61289,-0.0963334,3.54922],
        "type" : "VEC3"
    },{
        "bufferView" : 34,
        "componentType" : 5126,
        "count" : 43,
        "max" : [0.998535,0.712272,0.998016],
        "min" : [-0.998657,-0.665883,-0.998352],
        "type" : "VEC3"
    },{
        "bufferView" : 35,
        "componentType" : 5126,
        "count" : 43,
        "max" : [1.40604,1.42229],
        "min" : [-0.435971,-0.401855],
        "type" : "VEC2"
    },{
        "bufferView" : 36,
        "componentType" : 5121,
        "count" : 108,
        "max" : [39],
        "min" : [0],
        "type" : "SCALAR"
    },{
        "bufferView" : 37,
        "componentType" : 5126,
        "count" : 40,
        "max" : [1,1.49732,1],
        "min" : [-1,-1.49732,-1.77573],
        "type" : "VEC3"
    },{
        "bufferView" : 38,
        "componentType" : 5126,
        "count" : 40,
        "max" : [0.708823,0.998993,0.251503],
        "min" : [-0.708823,-0.998993,-0.111728],
        "type" : "VEC3"
    },{
        "bufferView" : 39,
        "componentType" : 5126,
        "count" : 40,
        "max" : [1,0.706632,0.415653,1],
        "min" : [-1,-0.714599,-0.415653,1],
        "type" : "VEC4"
    },{
        "bufferView" : 40,
        "componentType" : 5126,
        "count" : 40,
        "max" : [2.25594,2.02316],
        "min" : [-1.30001,-0.905813],
        "type" : "VEC2"
    },{
        "bufferView" : 41,
        "componentType" : 5123,
        "count" : 504,
        "max" : [367],
        "min" : [0],
        "type" : "SCALAR"
    },{
        "bufferView" : 42,
        "componentType" : 5126,
        "count" : 368,
        "max" : [-1.14227,12.9889,-0.347541],
        "min" : [-9.64095,4.44272,-2.13595],
        "type" : "VEC3"
    },{
        "bufferView" : 43,
        "componentType" : 5126,
        "count" : 368,
        "max" : [1,0.998225,0.998224],
        "min" : [-1,-0.998224,-0.877771],
        "type" : "VEC3"
    },{
        "bufferView" : 44,
        "componentType" : 5126,
        "count" : 368,
        "max" : [0.999978,1,0.70152,1],
        "min" : [-0.949332,-0.963808,-0.913341,1],
        "type" : "VEC4"
    },{
        "bufferView" : 45,
        "componentType" : 5126,
        "count" : 368,
        "max" : [1.01775,1.01703],
        "min" : [0.000265613,0.0101067],
        "type" : "VEC2"
    },{
        "bufferView" : 46,
        "componentType" : 5121,
        "count" : 66,
        "max" : [43],
        "min" : [0],
        "type" : "SCALAR"
    },{
        "bufferView" : 47,
        "componentType" : 5126,
        "count" : 44,
        "max" : [8.7623,12.121,-0.324608],
        "min" : [3.6036,-0.525168,-1.56449],
        "type" : "VEC3"
    },{
        "bufferView" : 48,
        "componentType" : 5126,
        "count" : 44,
        "max" : [1,0.996271,0.996745],
        "min" : [-1,-0.99627,-0.0862838],
        "type" : "VEC3"
    },{
        "bufferView" : 49,
        "componentType" : 5126,
        "count" : 44,
        "max" : [2.73312e-06,0.996745,0.996271,1],
        "min" : [-2.75333e-06,0.0862838,-0.089974,-1],
        "type" : "VEC4"
    },{
        "bufferView" : 50,
        "componentType" : 5126,
        "count" : 44,
        "max" : [1.46317,0.889474],
        "min" : [-0.486634,0.0940988],
        "type" : "VEC2"
    },{
        "bufferView" : 51,
        "componentType" : 5121,
        "count" : 138,
        "max" : [63],
        "min" : [0],
        "type" : "SCALAR"
    },{
        "bufferView" : 52,
        "componentType" : 5126,
        "count" : 64,
        "max" : [1.3112,1.59543,-0.368229],
        "min" : [0,-1.59543,-2.02423],
        "type" : "VEC3"
    },{
        "bufferView" : 53,
        "componentType" : 5126,
        "count" : 64,
        "max" : [0.919248,0.905911,0.915555],
        "min" : [-0.843196,-0.905911,-0.602588],
        "type" : "VEC3"
    },{
        "bufferView" : 54,
        "componentType" : 5126,
        "count" : 64,
        "max" : [0.940029,0.999981,0.976554,1],
        "min" : [-0.755955,-0.999981,-0.977632,1],
        "type" : "VEC4"
    },{
        "bufferView" : 55,
        "componentType" : 5126,
        "count" : 64,
        "max" : [1,1],
        "min" : [0,0.0347574],
        "type" : "VEC2"
    },{
        "bufferView" : 56,
        "componentType" : 5121,
        "count" : 30,
        "max" : [19],
        "min" : [0],
        "type" : "SCALAR"
    },{
        "bufferView" : 57,
        "componentType" : 5126,
        "count" : 20,
        "max" : [-2.36092,11.6527,-0.931395],
        "min" : [-8.21625,5.81091,-1.43616],
        "type" : "VEC3"
    },{
        "bufferView" : 58,
        "componentType" : 5126,
        "count" : 20,
        "max" : [1,0.996996,0.996997],
        "min" : [-1,-0.996997,-0.0774486],
        "type" : "VEC3"
    },{
        "bufferView" : 59,
        "componentType" : 5126,
        "count" : 20,
        "max" : [0.999999,0.0750771,0.997178,1],
        "min" : [0,-0.0797929,-0.996812,1],
        "type" : "VEC4"
    },{
        "bufferView" : 60,
        "componentType" : 5126,
        "count" : 20,
        "max" : [0.942134,0.918453],
        "min" : [0.0560268,0.101078],
        "type" : "VEC2"
    }],
    "asset" : {
        "generator" : "Khronos Blender glTF 2.0 exporter",
        "version" : "2.0"
    },
    "bufferViews" : [{
        "buffer" : 0,
        "byteLength" : 246,
        "byteOffset" : 0,
        "target" : 34963
    },{
        "buffer" : 0,
        "byteLength" : 1584,
        "byteOffset" : 248,
        "target" : 34962
    },{
        "buffer" : 0,
        "byteLength" : 1584,
        "byteOffset" : 1832,
        "target" : 34962
    },{
        "buffer" : 0,
        "byteLength" : 2112,
        "byteOffset" : 3416,
        "target" : 34962
    },{
        "buffer" : 0,
        "byteLength" : 1056,
        "byteOffset" : 5528,
        "target" : 34962
    },{
        "buffer" : 0,
        "byteLength" : 222,
        "byteOffset" : 6584,
        "target" : 34963
    },{
        "buffer" : 0,
        "byteLength" : 480,
        "byteOffset" : 6808,
        "target" : 34962
    },{
        "buffer" : 0,
        "byteLength" : 480,
        "byteOffset" : 7288,
        "target" : 34962
    },{
        "buffer" : 0,
        "byteLength" : 384,
        "byteOffset" : 7768,
        "target" : 34963
    },{
        "buffer" : 0,
        "byteLength" : 768,
        "byteOffset" : 8152,
        "target" : 34962
    },{
        "buffer" : 0,
        "byteLength" : 768,
        "byteOffset" : 8920,
        "target" : 34962
    },{
        "buffer" : 0,
        "byteLength" : 24,
        "byteOffset" : 9688,
        "target" : 34963
    },{
        "buffer" : 0,
        "byteLength" : 108,
        "byteOffset" : 9712,
        "target" : 34962
    },{
        "buffer" : 0,
        "byteLength" : 108,
        "byteOffset" : 9820,
        "target" : 34962
    },{
        "buffer" : 0,
        "byteLength" : 36,
        "byteOffset" : 9928,
        "target" : 34963
    },{
        "buffer" : 0,
        "byteLength" : 192,
        "byteOffset" : 9964,
        "target" : 34962
    },{
        "buffer" : 0,
        "byteLength" : 192,
        "byteOffset" : 10156,
        "target" : 34962
    },{
        "buffer" : 0,
        "byteLength" : 128,
        "byteOffset" : 10348,
        "target" : 34962
    },{
        "buffer" : 0,
        "byteLength" : 144,
        "byteOffset" : 10476,
        "target" : 34963
    },{
        "buffer" : 0,
        "byteLength" : 432,
        "byteOffset" : 10620,
        "target" : 34962
    },{
        "buffer" : 0,
        "byteLength" : 432,
        "byteOffset" : 11052,
        "target" : 34962
    },{
        "buffer" : 0,
        "byteLength" : 288,
        "byteOffset" : 11484,
        "target" : 34962
    },{
        "buffer" : 0,
        "byteLength" : 48,
        "byteOffset" : 11772,
        "target" : 34963
    },{
        "buffer" : 0,
        "byteLength" : 384,
        "byteOffset" : 11820,
        "target" : 34962
    },{
        "buffer" : 0,
        "byteLength" : 384,
        "byteOffset" : 12204,
        "target" : 34962
    },{
        "buffer" : 0,
        "byteLength" : 512,
        "byteOffset" : 12588,
        "target" : 34962
    },{
        "buffer" : 0,
        "byteLength" : 256,
        "byteOffset" : 13100,
        "target" : 34962
    },{
        "buffer" : 0,
        "byteLength" : 996,
        "byteOffset" : 13356,
        "target" : 34963
    },{
        "buffer" : 0,
        "byteLength" : 4272,
        "byteOffset" : 14352,
        "target" : 34962
    },{
        "buffer" : 0,
        "byteLength" : 4272,
        "byteOffset" : 18624,
        "target" : 34962
    },{
        "buffer" : 0,
        "byteLength" : 5696,
        "byteOffset" : 22896,
        "target" : 34962
    },{
        "buffer" : 0,
        "byteLength" : 2848,
        "byteOffset" : 28592,
        "target" : 34962
    },{
        "buffer" : 0,
        "byteLength" : 132,
        "byteOffset" : 31440,
        "target" : 34963
    },{
        "buffer" : 0,
        "byteLength" : 516,
        "byteOffset" : 31572,
        "target" : 34962
    },{
        "buffer" : 0,
        "byteLength" : 516,
        "byteOffset" : 32088,
        "target" : 34962
    },{
        "buffer" : 0,
        "byteLength" : 344,
        "byteOffset" : 32604,
        "target" : 34962
    },{
        "buffer" : 0,
        "byteLength" : 108,
        "byteOffset" : 32948,
        "target" : 34963
    },{
        "buffer" : 0,
        "byteLength" : 480,
        "byteOffset" : 33056,
        "target" : 34962
    },{
        "buffer" : 0,
        "byteLength" : 480,
        "byteOffset" : 33536,
        "target" : 34962
    },{
        "buffer" : 0,
        "byteLength" : 640,
        "byteOffset" : 34016,
        "target" : 34962
    },{
        "buffer" : 0,
        "byteLength" : 320,
        "byteOffset" : 34656,
        "target" : 34962
    },{
        "buffer" : 0,
        "byteLength" : 1008,
        "byteOffset" : 34976,
        "target" : 34963
    },{
        "buffer" : 0,
        "byteLength" : 4416,
        "byteOffset" : 35984,
        "target" : 34962
    },{
        "buffer" : 0,
        "byteLength" : 4416,
        "byteOffset" : 40400,
        "target" : 34962
    },{
        "buffer" : 0,
        "byteLength" : 5888,
        "byteOffset" : 44816,
        "target" : 34962
    },{
        "buffer" : 0,
        "byteLength" : 2944,
        "byteOffset" : 50704,
        "target" : 34962
    },{
        "buffer" : 0,
        "byteLength" : 66,
        "byteOffset" : 53648,
        "target" : 34963
    },{
        "buffer" : 0,
        "byteLength" : 528,
        "byteOffset" : 53716,
        "target" : 34962
    },{
        "buffer" : 0,
        "byteLength" : 528,
        "byteOffset" : 54244,
        "target" : 34962
    },{
        "buffer" : 0,
        "byteLength" : 704,
        "byteOffset" : 54772,
        "target" : 34962
    },{
        "buffer" : 0,
        "byteLength" : 352,
        "byteOffset" : 55476,
        "target" : 34962
    },{
        "buffer" : 0,
        "byteLength" : 138,
        "byteOffset" : 55828,
        "target" : 34963
    },{
        "buffer" : 0,
        "byteLength" : 768,
        "byteOffset" : 55968,
        "target" : 34962
    },{
        "buffer" : 0,
        "byteLength" : 768,
        "byteOffset" : 56736,
        "target" : 34962
    },{
        "buffer" : 0,
        "byteLength" : 1024,
        "byteOffset" : 57504,
        "target" : 34962
    },{
        "buffer" : 0,
        "byteLength" : 512,
        "byteOffset" : 58528,
        "target" : 34962
    },{
        "buffer" : 0,
        "byteLength" : 30,
        "byteOffset" : 59040,
        "target" : 34963
    },{
        "buffer" : 0,
        "byteLength" : 240,
        "byteOffset" : 59072,
        "target" : 34962
    },{
        "buffer" : 0,
        "byteLength" : 240,
        "byteOffset" : 59312,
        "target" : 34962
    },{
        "buffer" : 0,
        "byteLength" : 320,
        "byteOffset" : 59552,
        "target" : 34962
    },{
        "buffer" : 0,
        "byteLength" : 160,
        "byteOffset" : 59872,
        "target" : 34962
    }],
    "buffers" : [{
        "byteLength" : 60032,
        "uri" : "CartoonHouse.bin"
    }],
    "materials" : [{
        "name" : "Material.006",
        "pbrMetallicRoughness" : {
            "baseColorFactor" : [0.153516,0.300592,0.0421955,1],
            "metallicFactor" : 0
        }
    }],
    "meshes" : [{
        "name" : "Cube.006",
        "primitives" : [{
            "attributes" : {
                "NORMAL" : 2,
                "POSITION" : 1,
                "TANGENT" : 3,
                "TEXCOORD_0" : 4
            },
            "indices" : 0
        }]
    },{
        "name" : "Cube",
        "primitives" : [{
            "attributes" : {
                "NORMAL" : 7,
                "POSITION" : 6
            },
            "indices" : 5
        }]
    },{
        "name" : "Cylinder.002",
        "primitives" : [{
            "attributes" : {
                "NORMAL" : 10,
                "POSITION" : 9
            },
            "indices" : 8
        }]
    },{
        "name" : "Plane.002",
        "primitives" : [{
            "attributes" : {
                "NORMAL" : 13,
                "POSITION" : 12
            },
            "indices" : 11,
            "material" : 0
        }]
    },{
        "name" : "Cylinder.001",
        "primitives" : [{
            "attributes" : {
                "NORMAL" : 16,
                "POSITION" : 15,
                "TEXCOORD_0" : 17
            },
            "indices" : 14
        },{
            "attributes" : {
                "NORMAL" : 20,
                "POSITION" : 19,
                "TEXCOORD_0" : 21
            },
            "indices" : 18
        }]
    },{
        "name" : "Cube.003",
        "primitives" : [{
            "attributes" : {
                "NORMAL" : 24,
                "POSITION" : 23,
                "TANGENT" : 25,
                "TEXCOORD_0" : 26
            },
            "indices" : 22
        }]
    },{
        "name" : "Cube.002",
        "primitives" : [{
            "attributes" : {
                "NORMAL" : 29,
                "POSITION" : 28,
                "TANGENT" : 30,
                "TEXCOORD_0" : 31
            },
            "indices" : 27
        }]
    },{
        "name" : "Cylinder",
        "primitives" : [{
            "attributes" : {
                "NORMAL" : 34,
                "POSITION" : 33,
                "TEXCOORD_0" : 35
            },
            "indices" : 32
        }]
    },{
        "name" : "Plane",
        "primitives" : [{
            "attributes" : {
                "NORMAL" : 38,
                "POSITION" : 37,
                "TANGENT" : 39,
                "TEXCOORD_0" : 40
            },
            "indices" : 36
        }]
    },{
        "name" : "Cube.000",
        "primitives" : [{
            "attributes" : {
                "NORMAL" : 43,
                "POSITION" : 42,
                "TANGENT" : 44,
                "TEXCOORD_0" : 45
            },
            "indices" : 41
        }]
    },{
        "name" : "Cube.004",
        "primitives" : [{
            "attributes" : {
                "NORMAL" : 48,
                "POSITION" : 47,
                "TANGENT" : 49,
                "TEXCOORD_0" : 50
            },
            "indices" : 46
        }]
    },{
        "name" : "Plane.001",
        "primitives" : [{
            "attributes" : {
                "NORMAL" : 53,
                "POSITION" : 52,
                "TANGENT" : 54,
                "TEXCOORD_0" : 55
            },
            "indices" : 51
        }]
    },{
        "name" : "Cube.005",
        "primitives" : [{
            "attributes" : {
                "NORMAL" : 58,
                "POSITION" : 57,
                "TANGENT" : 59,
                "TEXCOORD_0" : 60
            },
            "indices" : 56
        }]
    }],
    "nodes" : [{
        "name" : "Camera",
        "rotation" : [0.592751,0.1946,-0.150407,0.766913],
        "scale" : [1,1,1],
        "translation" : [12.7443,10.4261,24.0384]
    },{
        "mesh" : 6,
        "name" : "Cube",
        "scale" : [0.21778,0.21778,0.21778],
        "translation" : [0,0.562859,4.10246]
    },{
        "mesh" : 5,
        "name" : "Cube.001",
        "translation" : [0,0.562859,-0]
    },{
        "mesh" : 10,
        "name" : "Cube.002",
        "scale" : [0.21778,0.21778,0.21778],
        "translation" : [0,0.562859,4.10246]
    },{
        "mesh" : 12,
        "name" : "Cube.003",
        "scale" : [0.21778,0.21778,0.21778],
        "translation" : [0,0.562859,4.10246]
    },{
        "mesh" : 0,
        "name" : "Cube.004",
        "scale" : [0.415405,0.415405,0.415405],
        "translation" : [1.86068,7.46386,2.60887e-07]
    },{
        "mesh" : 9,
        "name" : "Cube.005",
        "scale" : [0.21778,0.21778,0.21778],
        "translation" : [0,0.562859,4.10246]
    },{
        "mesh" : 1,
        "name" : "Cube.006",
        "rotation" : [-0.0340458,2.72869e-24,7.55969e-18,0.99942],
        "scale" : [0.120819,0.120819,0.120819],
        "translation" : [1.59044,1.98503,3.90132]
    },{
        "mesh" : 7,
        "name" : "Cylinder",
        "translation" : [0,0.562859,-0]
    },{
        "mesh" : 4,
        "name" : "Cylinder.001",
        "rotation" : [0.707107,0,-0,0.707107],
        "scale" : [0.266971,5.72982,0.266971],
        "translation" : [0,9.46404,0.509654]
    },{
        "mesh" : 2,
        "name" : "Cylinder.002",
        "rotation" : [0.682623,5.34551e-18,5.34551e-18,0.730771],
        "scale" : [0.112302,0.112302,0.112302],
        "translation" : [1.59676,1.84831,3.94738]
    },{
        "mesh" : 8,
        "name" : "Plane",
        "rotation" : [0.707107,0,-0,0.707107],
        "scale" : [3,3,3],
        "translation" : [0,3.56286,-0]
    },{
        "mesh" : 11,
        "name" : "Plane.001",
        "rotation" : [0.707107,0,-0,0.707107],
        "scale" : [3,3,3],
        "translation" : [0,3.56286,-0]
    },{
        "mesh" : 3,
        "name" : "Plane.002",
        "scale" : [8.74657,8.74657,8.74657]
    },{
        "name" : "Sun",
        "rotation" : [0.306888,0.503261,-0.176693,0.788243],
        "translation" : [11.9719,17.3739,8.56977]
    }],
    "scene" : 0,
    "scenes" : [{
        "name" : "Scene",
        "nodes" : [7,10,6,0,14,13,5,9,4,3,2,1,12,8,11]
    }]
}
